<svg width="27" height="280" viewBox="0 0 27 280" fill="none" xmlns="http://www.w3.org/2000/svg">
<g clip-path="url(#clip0_2432_2388)">
<g opacity="0.2">
<path d="M31.8355 251.745L19.9221 246.954L31.8355 242.168V226.594L4.09241 238.877V254.792L31.8355 267.035V251.745Z" fill="#C6C6C6"/>
<path d="M15.1874 165.145L27.1008 169.874L31.8355 171.779V156.421L4.09241 144.172V160.655L15.1874 165.145Z" fill="#C6C6C6"/>
<path d="M31.8355 182.663L27.1008 184.562L15.1874 189.296L4.09241 193.787V210.594L31.8355 198.305V182.663Z" fill="#C6C6C6"/>
<path d="M31.8355 112.928L19.9221 108.136L31.8355 103.35V87.7764L4.09241 100.059V115.968L31.8355 128.217V112.928Z" fill="#C6C6C6"/>
<path d="M27.1008 31.0568L31.8355 32.9609V17.603L4.09241 5.35425V21.8375L15.1874 26.3278L27.1008 31.0568Z" fill="#C6C6C6"/>
<path d="M31.8355 43.8455L27.1008 45.7439L15.1874 50.4786L4.09241 54.9688V71.7761L31.8355 59.4875V43.8455Z" fill="#C6C6C6"/>
</g>
<path d="M27.7431 246.385L15.8296 241.6L27.7431 236.814V221.234L0 233.523V249.432L27.7431 261.681V246.385Z" fill="#27A999"/>
<path d="M11.095 159.786L23.0084 164.52L27.7431 166.424V151.066L0 138.818V155.301L11.095 159.786Z" fill="#FECA09"/>
<path d="M27.7431 177.303L23.0084 179.207L11.095 183.942L0 188.427V205.234L27.7431 192.951V177.303Z" fill="#FECA09"/>
<path d="M27.7431 107.568L15.8296 102.782L27.7431 97.9959V82.4164L0 94.705V110.614L27.7431 122.863V107.568Z" fill="#9CC2CD"/>
<path d="M23.0084 25.7026L27.7431 27.6067V12.2488L0 0V16.4833L11.095 20.9679L23.0084 25.7026Z" fill="#EF7E16"/>
<path d="M27.7431 38.4856L23.0084 40.3897L11.095 45.1187L0 49.609V66.4163L27.7431 54.1334V38.4856Z" fill="#EF7E16"/>
</g>
<defs>
<clipPath id="clip0_2432_2388">
<rect width="61.2099" height="280" fill="white"/>
</clipPath>
</defs>
</svg>
