<svg width="37" height="280" viewBox="0 0 37 280" fill="none" xmlns="http://www.w3.org/2000/svg">
<g clip-path="url(#clip0_2432_2274)">
<g opacity="0.2">
<path d="M13.2015 254.297L8.46677 252.399V267.757L36.2099 280V263.522L25.1149 259.032L13.2015 254.297Z" fill="#C6C6C6"/>
<path d="M6.83549 251.745L-5.07795 246.954L6.83549 242.168V226.594L-20.9076 238.877V254.792L6.83549 267.035V251.745Z" fill="#C6C6C6"/>
<path d="M8.46677 225.872V241.514L13.2015 239.61L25.1149 234.881L36.2099 230.391V213.584L8.46677 225.872Z" fill="#C6C6C6"/>
<path d="M-9.81263 165.145L2.10081 169.874L6.83549 171.779V156.421L-20.9076 144.172V160.655L-9.81263 165.145Z" fill="#C6C6C6"/>
<path d="M8.46677 157.143V172.432L20.3802 177.218L8.46677 182.01V197.583L36.2099 185.301V169.386L8.46677 157.143Z" fill="#C6C6C6"/>
<path d="M6.83549 182.663L2.10081 184.562L-9.81263 189.296L-20.9076 193.787V210.594L6.83549 198.305V182.663Z" fill="#C6C6C6"/>
<path d="M6.83549 112.928L-5.07795 108.136L6.83549 103.35V87.7764L-20.9076 100.059V115.968L6.83549 128.217V112.928Z" fill="#C6C6C6"/>
<path d="M13.2015 115.48L8.46677 113.581V128.939L36.2099 141.182V124.699L25.1149 120.214L13.2015 115.48Z" fill="#C6C6C6"/>
<path d="M8.46677 87.0545V102.697L13.2015 100.792L25.1149 96.0634L36.2099 91.5731V74.7659L8.46677 87.0545Z" fill="#C6C6C6"/>
<path d="M2.10081 31.0568L6.83549 32.9609V17.603L-20.9076 5.35425V21.8375L-9.81263 26.3278L2.10081 31.0568Z" fill="#C6C6C6"/>
<path d="M8.46677 18.3248V33.6145L20.3802 38.4003L8.46677 43.1919V58.7657L36.2099 46.4772V30.5679L8.46677 18.3248Z" fill="#C6C6C6"/>
<path d="M6.83549 43.8455L2.10081 45.7439L-9.81263 50.4786L-20.9076 54.9688V71.7761L6.83549 59.4875V43.8455Z" fill="#C6C6C6"/>
</g>
<path d="M9.10905 248.943L4.37437 247.039V262.397L32.1175 274.646V258.162L21.0225 253.678L9.10905 248.943Z" fill="#27A999"/>
<path d="M2.74309 246.385L-9.17035 241.6L2.74309 236.814V221.234L-25 233.523V249.432L2.74309 261.681V246.385Z" fill="#27A999"/>
<path d="M4.37437 220.512V236.16L9.10905 234.256L21.0225 229.527L32.1175 225.037V208.229L4.37437 220.512Z" fill="#27A999"/>
<path d="M-13.905 159.786L-1.99159 164.52L2.74309 166.424V151.066L-25 138.818V155.301L-13.905 159.786Z" fill="#FECA09"/>
<path d="M4.37437 151.783V167.078L16.2878 171.864L4.37437 176.65V192.229L32.1175 179.941V164.031L4.37437 151.783Z" fill="#FECA09"/>
<path d="M2.74309 177.303L-1.99159 179.207L-13.905 183.942L-25 188.427V205.234L2.74309 192.951V177.303Z" fill="#FECA09"/>
<path d="M2.74309 107.568L-9.17035 102.782L2.74309 97.9959V82.4164L-25 94.705V110.614L2.74309 122.863V107.568Z" fill="#9CC2CD"/>
<path d="M9.10905 110.125L4.37437 108.221V123.579L32.1175 135.828V119.345L21.0225 114.86L9.10905 110.125Z" fill="#9CC2CD"/>
<path d="M4.37437 81.6945V97.3423L9.10905 95.4382L21.0225 90.7035L32.1175 86.2189V69.4116L4.37437 81.6945Z" fill="#9CC2CD"/>
<path d="M-1.99159 25.7026L2.74309 27.6067V12.2488L-25 0V16.4833L-13.905 20.9679L-1.99159 25.7026Z" fill="#EF7E16"/>
<path d="M4.37437 12.965V28.2603L16.2878 33.0462L4.37437 37.832V53.4116L32.1175 41.123V25.2138L4.37437 12.965Z" fill="#EF7E16"/>
<path d="M2.74309 38.4856L-1.99159 40.3897L-13.905 45.1187L-25 49.609V66.4163L2.74309 54.1334V38.4856Z" fill="#EF7E16"/>
</g>
<defs>
<clipPath id="clip0_2432_2274">
<rect width="61.2099" height="280" fill="white" transform="translate(-25)"/>
</clipPath>
</defs>
</svg>
