<svg width="100" height="12" viewBox="0 0 100 12" fill="none" xmlns="http://www.w3.org/2000/svg">
<g clip-path="url(#clip0_2467_508)">
<g opacity="0.2">
<path d="M9.17948 3.64341L9.85748 1.95245L4.37253 1.95245L-1.37845e-05 11.8607L5.88484 11.8607L7.48851 7.89821L9.17948 3.64341Z" fill="#C6C6C6"/>
<path d="M10.091 1.36982L11.8022 -2.88498L13.5115 1.36982L19.0735 1.36982L14.6868 -8.53842L9.00291 -8.53842L4.63037 1.36982L10.091 1.36982Z" fill="#C6C6C6"/>
<path d="M19.3313 1.95245L13.7449 1.95245L14.4249 3.64341L16.1138 7.89821L17.7175 11.8607L23.7201 11.8607L19.3313 1.95245Z" fill="#C6C6C6"/>
<path d="M41.0194 -4.57594L39.3305 -0.321134L38.6505 1.36982L44.1354 1.36982L48.51 -8.53842L42.6231 -8.53842L41.0194 -4.57594Z" fill="#C6C6C6"/>
<path d="M43.8776 1.95245L38.417 1.95245L36.7078 6.20725L34.9965 1.95245L29.4344 1.95245L33.8212 11.8607L39.5051 11.8607L43.8776 1.95245Z" fill="#C6C6C6"/>
<path d="M34.7631 1.36982L34.0851 -0.321134L32.3941 -4.57593L30.7905 -8.53842L24.7879 -8.53842L29.1766 1.36982L34.7631 1.36982Z" fill="#C6C6C6"/>
<path d="M59.6687 1.36982L61.3799 -2.88498L63.0892 1.36982L68.6513 1.36982L64.2645 -8.53842L58.5827 -8.53842L54.2081 1.36982L59.6687 1.36982Z" fill="#C6C6C6"/>
<path d="M58.7573 3.64341L59.4353 1.95245L53.9503 1.95245L49.5778 11.8607L55.4647 11.8607L57.0663 7.89821L58.7573 3.64341Z" fill="#C6C6C6"/>
<path d="M68.9091 1.95245L63.3226 1.95245L64.0027 3.64341L65.6916 7.89821L67.2953 11.8607L73.2979 11.8607L68.9091 1.95245Z" fill="#C6C6C6"/>
<path d="M88.9083 -0.321134L88.2282 1.36982L93.7132 1.36982L98.0878 -8.53842L92.2009 -8.53842L90.5972 -4.57594L88.9083 -0.321134Z" fill="#C6C6C6"/>
<path d="M93.4554 1.95245L87.9948 1.95245L86.2856 6.20725L84.5744 1.95245L79.0123 1.95245L83.401 11.8607L89.0829 11.8607L93.4554 1.95245Z" fill="#C6C6C6"/>
<path d="M84.3409 1.36982L83.6629 -0.321134L81.9719 -4.57593L80.3682 -8.53842L74.3656 -8.53842L78.7544 1.36982L84.3409 1.36982Z" fill="#C6C6C6"/>
</g>
<path d="M11.0917 2.1818L11.7718 0.490845L6.2868 0.490844L1.91223 10.3991L7.79912 10.3991L9.40076 6.4366L11.0917 2.1818Z" fill="#27A999"/>
<path d="M21.2456 0.490845L15.6571 0.490844L16.3371 2.1818L18.0261 6.4366L19.6297 10.3991L25.6323 10.3991L21.2456 0.490845Z" fill="#27A999"/>
<path d="M45.7918 0.490845L40.3292 0.490844L38.62 4.74565L36.9108 0.490844L31.3466 0.490844L35.7354 10.3991L41.4173 10.3991L45.7918 0.490845Z" fill="#FECA09"/>
<path d="M60.6695 2.1818L61.3495 0.490845L55.8646 0.490844L51.49 10.3991L57.3769 10.3991L58.9786 6.4366L60.6695 2.1818Z" fill="#9CC2CD"/>
<path d="M70.8234 0.490845L65.2349 0.490844L65.9149 2.1818L67.6059 6.4366L69.2075 10.3991L75.2101 10.3991L70.8234 0.490845Z" fill="#9CC2CD"/>
<path d="M95.3697 0.490845L89.907 0.490844L88.1978 4.74565L86.4886 0.490844L80.9244 0.490844L85.3132 10.3991L90.9951 10.3991L95.3697 0.490845Z" fill="#EF7E16"/>
</g>
<defs>
<clipPath id="clip0_2467_508">
<rect width="21.8607" height="100" fill="white" transform="translate(100 -10) rotate(90)"/>
</clipPath>
</defs>
</svg>
