<svg width="728" height="754" viewBox="0 0 728 754" fill="none" xmlns="http://www.w3.org/2000/svg">
<g opacity="0.4">
<path d="M245.622 8H570.812V528.304H245.622V8Z" stroke="#E3E3E3" stroke-width="16" stroke-linecap="round" stroke-linejoin="round"/>
<path d="M570.808 8L803.211 240.402C807.98 245.172 809.281 252.109 806.679 258.179C804.078 264.25 798.008 268.152 791.504 268.152H570.808" stroke="#E3E3E3" stroke-width="16" stroke-linecap="round" stroke-linejoin="round"/>
<path d="M570.808 268.152L803.211 500.554C807.98 505.324 809.281 512.261 806.679 518.331C804.078 524.401 798.008 528.304 791.504 528.304H570.808" stroke="#E3E3E3" stroke-width="16" stroke-linecap="round" stroke-linejoin="round"/>
<path d="M245.622 268.152H24.4928C17.989 268.152 11.9188 264.25 9.31728 258.179C6.71576 252.109 8.01652 245.172 12.786 240.402L245.622 8" stroke="#E3E3E3" stroke-width="16" stroke-linecap="round" stroke-linejoin="round"/>
<path d="M245.622 268.152L13.2199 500.554C8.45047 505.324 7.14971 512.261 9.75123 518.331C12.3527 524.401 17.9894 528.304 24.9268 528.304H246.056" stroke="#E3E3E3" stroke-width="16" stroke-linecap="round" stroke-linejoin="round"/>
<path d="M570.812 528.304L245.622 8" stroke="#E3E3E3" stroke-width="16" stroke-linecap="round" stroke-linejoin="round"/>
<path d="M245.622 528.304L570.812 8" stroke="#E3E3E3" stroke-width="16" stroke-linecap="round" stroke-linejoin="round"/>
<path d="M50.5082 983.569L245.622 528.304" stroke="#E3E3E3" stroke-width="16" stroke-linecap="round" stroke-linejoin="round"/>
<path d="M765.922 983.569L570.808 528.304" stroke="#E3E3E3" stroke-width="16" stroke-linecap="round" stroke-linejoin="round"/>
<path d="M217.006 595.076L703.923 838.318" stroke="#E3E3E3" stroke-width="16" stroke-linecap="round" stroke-linejoin="round"/>
<path d="M599.429 595.076L112.512 838.318" stroke="#E3E3E3" stroke-width="16" stroke-linecap="round" stroke-linejoin="round"/>
</g>
</svg>
