<svg width="621" height="816" viewBox="0 0 621 816" fill="none" xmlns="http://www.w3.org/2000/svg">
<g opacity="0.4">
<path d="M252.979 386.948V278.611C252.979 271.032 253.51 263.537 254.612 256.042L283.846 52.7579C286.459 27.6211 308.221 8 334.638 8C361.054 8 382.816 27.6211 385.43 52.7579L414.663 256.042C415.766 263.537 416.296 271.074 416.296 278.611V386.948" stroke="#E3E3E3" stroke-width="16" stroke-linecap="round" stroke-linejoin="round"/>
<path d="M375.873 314.527L467.126 368.253C473.496 372.042 479.579 376.253 485.336 380.885L641.958 503.453C661.842 518.274 667.435 547.243 654.207 570.653C640.937 594.064 613.377 603.579 591.003 593.432L405.025 522.695C398.186 519.965 391.553 516.714 385.182 512.969L293.928 459.2" stroke="#E3E3E3" stroke-width="16" stroke-linecap="round" stroke-linejoin="round"/>
<path d="M375.462 459.2L284.167 512.969C277.808 516.697 271.189 519.934 264.365 522.653L78.3872 593.432C55.8903 603.579 28.4529 594.064 15.1834 570.695C1.95467 547.243 7.54828 518.274 27.4322 503.453L184.054 380.927C189.792 376.229 195.881 372.005 202.264 368.295L293.517 314.527" stroke="#E3E3E3" stroke-width="16" stroke-linecap="round" stroke-linejoin="round"/>
<path d="M252.979 386.947C252.979 409.281 261.582 430.7 276.896 446.492C292.21 462.285 312.981 471.157 334.638 471.157C356.295 471.157 377.065 462.285 392.379 446.492C407.693 430.7 416.296 409.281 416.296 386.947C416.296 364.613 407.693 343.193 392.379 327.401C377.065 311.608 356.295 302.736 334.638 302.736C312.981 302.736 292.21 311.608 276.896 327.401C261.582 343.193 252.979 364.613 252.979 386.947Z" stroke="#E3E3E3" stroke-width="16" stroke-linecap="round" stroke-linejoin="round"/>
<path d="M130.49 808H538.783" stroke="#E3E3E3" stroke-width="16" stroke-linecap="round" stroke-linejoin="round"/>
<path d="M252.979 807.999L293.808 513.262" stroke="#E3E3E3" stroke-width="16" stroke-linecap="round" stroke-linejoin="round"/>
<path d="M375.462 513.262L416.292 807.999" stroke="#E3E3E3" stroke-width="16" stroke-linecap="round" stroke-linejoin="round"/>
</g>
</svg>
