<svg width="40" height="40" viewBox="0 0 40 40" fill="none" xmlns="http://www.w3.org/2000/svg">
<path d="M32.5001 20.9533L20.0001 33.3333L7.50005 20.9533C6.67556 20.151 6.02612 19.1867 5.59263 18.121C5.15914 17.0554 4.95099 15.9116 4.98128 14.7615C5.01158 13.6115 5.27966 12.4802 5.76865 11.4389C6.25764 10.3976 6.95695 9.46875 7.82253 8.71096C8.68812 7.95316 9.70123 7.3828 10.7981 7.03579C11.8949 6.68878 13.0517 6.57263 14.1957 6.69466C15.3396 6.81669 16.4459 7.17425 17.4448 7.74483C18.4438 8.31542 19.3138 9.08666 20.0001 10.01C20.6893 9.09336 21.5603 8.32886 22.5586 7.76433C23.5568 7.1998 24.6609 6.84741 25.8016 6.72919C26.9423 6.61097 28.0952 6.72949 29.188 7.07731C30.2808 7.42513 31.2901 7.99478 32.1526 8.7506C33.0152 9.50641 33.7124 10.4321 34.2008 11.4698C34.6891 12.5075 34.958 13.6348 34.9906 14.7812C35.0232 15.9275 34.8188 17.0683 34.3903 18.1321C33.9617 19.1958 33.3182 20.1597 32.5001 20.9633" stroke="#1F717D" stroke-width="3" stroke-linecap="round" stroke-linejoin="round"/>
</svg>
