<svg width="41" height="40" viewBox="0 0 41 40" fill="none" xmlns="http://www.w3.org/2000/svg">
<path d="M17.1667 15H23.8333M17.1667 22.5C15.8957 23.2338 14.9024 24.3664 14.3408 25.7223C13.7792 27.0781 13.6807 28.5814 14.0605 29.999C14.4403 31.4165 15.2773 32.6691 16.4416 33.5625C17.6059 34.4559 19.0325 34.9402 20.5 34.9402C21.9676 34.9402 23.3941 34.4559 24.5584 33.5625C25.7227 32.6691 26.5597 31.4165 26.9395 29.999C27.3194 28.5814 27.2208 27.0781 26.6592 25.7223C26.0976 24.3664 25.1043 23.2338 23.8333 22.5V8.33333C23.8333 7.44928 23.4822 6.60143 22.857 5.97631C22.2319 5.35119 21.3841 5 20.5 5C19.616 5 18.7681 5.35119 18.143 5.97631C17.5179 6.60143 17.1667 7.44928 17.1667 8.33333V22.5Z" stroke="#CC1D1D" stroke-width="3" stroke-linecap="round" stroke-linejoin="round"/>
</svg>
