<svg width="174" height="48" viewBox="0 0 174 48" fill="none" xmlns="http://www.w3.org/2000/svg">
<g clip-path="url(#clip0_2402_2080)">
<path d="M73.5113 39.136C73.6397 41.8658 74.9725 43.1022 77.349 43.1022C78.0506 43.1382 78.7471 42.9651 79.3502 42.605C79.9534 42.2448 80.4361 41.7137 80.7371 41.079H84.5106C84.0982 42.6699 83.1417 44.0663 81.807 45.0255C80.4724 45.9847 78.8439 46.4461 77.2045 46.3298C76.1184 46.3929 75.0314 46.2225 74.0168 45.83C73.0021 45.4375 72.0834 44.832 71.3225 44.0544C70.5617 43.2768 69.9764 42.3452 69.606 41.3222C69.2357 40.2993 69.089 39.2088 69.1757 38.1244C69.1177 37.0443 69.284 35.964 69.6639 34.9513C70.0439 33.9386 70.6294 33.0156 71.3836 32.2403C72.1378 31.465 73.0443 30.8542 74.0461 30.4465C75.0479 30.0387 76.1232 29.8427 77.2045 29.8708C82.5195 29.8708 85.0727 34.3509 84.7676 39.136H73.5113ZM80.4963 36.4223C80.0948 34.2385 79.1635 33.1144 77.076 33.1144C76.6226 33.0884 76.1686 33.1543 75.7413 33.308C75.3139 33.4617 74.922 33.7002 74.5891 34.0091C74.2562 34.3181 73.9892 34.691 73.8039 35.1057C73.6187 35.5204 73.5192 35.9682 73.5113 36.4223H80.4963Z" fill="#394D55"/>
<path d="M87.7382 24.3467H92.0255V45.8958H87.7382V24.3467Z" fill="#394D55"/>
<path d="M100.07 27.8149H95.783V24.2822H100.07V27.8149ZM95.783 30.2396H100.07V45.8314H95.783V30.2396Z" fill="#394D55"/>
<path d="M103.571 35.1058C103.812 31.0915 107.409 29.8711 110.909 29.8711C114.024 29.8711 117.766 30.5776 117.766 34.319V42.4281C117.681 43.6107 117.868 44.797 118.312 45.8965H114.008C113.851 45.4116 113.749 44.9107 113.703 44.4031C113.002 45.0601 112.176 45.5693 111.274 45.9004C110.372 46.2314 109.412 46.3775 108.452 46.33C105.498 46.33 103.137 44.8527 103.137 41.6412C103.137 38.1246 105.803 37.2736 108.452 36.9043C111.102 36.535 113.527 36.5992 113.527 34.865C113.527 33.1308 112.258 32.7454 110.749 32.7454C109.239 32.7454 108.067 33.4037 107.906 35.1058H103.571ZM113.478 38.3173C112.369 38.8699 111.153 39.1766 109.914 39.2166C108.581 39.4895 107.377 39.9391 107.377 41.5128C107.377 43.0864 108.613 43.5039 110.01 43.5039C110.487 43.5459 110.968 43.4806 111.417 43.3128C111.865 43.145 112.271 42.8789 112.603 42.534C112.936 42.1891 113.187 41.7742 113.339 41.3197C113.49 40.8651 113.538 40.3824 113.478 39.907V38.3173Z" fill="#394D55"/>
<path d="M172.714 11.8541L105.723 14.327L91.6562 15.0817L88.2038 15.2744L83.8523 15.5153C82.7282 11.0031 79.1153 7.85583 73.3185 7.06901C63.9089 5.81652 53.07 11.1797 47.466 17.8436C45.9394 19.5659 44.8393 21.6231 44.2545 23.8491L40.1438 24.4272C42.3276 16.3984 51.2555 8.24121 62.9454 4.35529C73.736 0.774469 83.8202 1.86638 89.3118 6.44277C84.2537 0.967159 72.8208 -0.397729 60.5207 3.72905C47.6747 7.96823 38.0402 16.7356 36.3221 24.8768L22.8338 26.9482L6.88867 29.1962V29.2765L36.0973 28.4897C36.0973 28.8269 36.1936 29.1641 36.2578 29.5013C37.141 33.7726 41.894 35.9243 46.6149 37.3535C43.7406 35.6353 40.497 33.8208 39.8065 30.513C39.6753 29.8514 39.6001 29.18 39.5817 28.5058L41.5889 28.3291H43.4034C44.11 32.745 48.6542 36.4542 55.286 36.936C58.265 37.0716 61.2456 36.7024 64.1015 35.844V33.9493C60.962 34.7831 57.7101 35.1137 54.467 34.9288C48.7987 34.6237 45.2822 31.91 44.1742 28.2649L52.3475 28.0401C52.4756 28.1702 52.6154 28.2885 52.7649 28.3934C55.013 31.0268 59.4128 32.0866 64.1497 31.1553V28.57C58.8507 29.694 54.178 28.4576 53.1664 25.4388C52.0102 21.9864 56.0888 17.5224 62.271 15.4671C68.4531 13.4117 74.3462 14.5197 75.4703 17.9721C75.7731 18.9739 75.7047 20.0514 75.2776 21.0069L100.97 18.5662L105.69 18.1808L174.352 11.9184L172.714 11.8541ZM76.1768 15.997C73.8645 11.8863 67.2167 10.5856 60.7134 13.1387C58.714 13.8307 56.879 14.928 55.3234 16.3621C53.7678 17.7961 52.525 19.536 51.673 21.4726C51.4574 21.917 51.2801 22.379 51.1431 22.8535L46.8237 23.4798C47.2341 22.3817 47.7731 21.336 48.4294 20.3646C51.3087 16.227 55.2602 12.9513 59.86 10.889C64.4598 8.82677 69.5342 8.05576 74.5389 8.6587C76.506 8.78849 78.3859 9.51855 79.9249 10.7504C81.464 11.9822 82.5882 13.6565 83.1457 15.5474L76.1768 15.997Z" fill="#F0801A"/>
</g>
<defs>
<clipPath id="clip0_2402_2080">
<rect width="174" height="48" fill="white"/>
</clipPath>
</defs>
</svg>
