<svg width="109" height="80" viewBox="0 0 109 80" fill="none" xmlns="http://www.w3.org/2000/svg">
<g clip-path="url(#clip0_2402_1782)">
<path d="M29.0073 72.6564L27.6546 72.114V76.502L35.5812 80V75.2921L32.4112 74.0092L29.0073 72.6564Z" fill="#C6C6C6"/>
<path d="M27.1885 71.9272L23.7847 70.5582L27.1885 69.1909V64.7412L19.2619 68.2506V72.7977L27.1885 76.2957V71.9272Z" fill="#C6C6C6"/>
<path d="M27.6546 64.5349V69.0041L29.0073 68.4601L32.4112 67.1089L35.5812 65.826V61.0239L27.6546 64.5349Z" fill="#C6C6C6"/>
<path d="M22.4319 47.1844L25.8357 48.5356L27.1885 49.0796V44.6917L19.2619 41.192V45.9015L22.4319 47.1844Z" fill="#C6C6C6"/>
<path d="M27.6546 44.8979V49.2664L31.0584 50.6338L27.6546 52.0028V56.4524L35.5812 52.943V48.3959L27.6546 44.8979Z" fill="#C6C6C6"/>
<path d="M27.1885 52.1895L25.8357 52.7319L22.4319 54.0847L19.2619 55.3676V60.1697L27.1885 56.6587V52.1895Z" fill="#C6C6C6"/>
<path d="M27.1885 32.265L23.7847 30.896L27.1885 29.5286V25.079L19.2619 28.5884V33.1339L27.1885 36.6335V32.265Z" fill="#C6C6C6"/>
<path d="M29.0073 32.9942L27.6546 32.4518V36.8398L35.5812 40.3378V35.6283L32.4112 34.347L29.0073 32.9942Z" fill="#C6C6C6"/>
<path d="M27.6546 24.8727V29.3419L29.0073 28.7979L32.4112 27.4467L35.5812 26.1638V21.3617L27.6546 24.8727Z" fill="#C6C6C6"/>
<path d="M25.8357 8.87337L27.1885 9.4174V5.02943L19.2619 1.52978V6.23929L22.4319 7.52223L25.8357 8.87337Z" fill="#C6C6C6"/>
<path d="M27.6546 5.23568V9.60416L31.0584 10.9715L27.6546 12.3405V16.7902L35.5812 13.2792V8.73371L27.6546 5.23568Z" fill="#C6C6C6"/>
<path d="M27.1885 12.5273L25.8357 13.0697L22.4319 14.4225L19.2619 15.7054V20.5075L27.1885 16.9965V12.5273Z" fill="#C6C6C6"/>
<path d="M15.5268 20.6082V36.9275H10.9115V30.5631H4.61532V36.9275H0V20.6082H4.61532V26.7403H10.9098V20.6082H15.5252H15.5268Z" fill="#435056"/>
<path d="M36.0456 28.767C36.0456 23.8009 39.8457 20.2818 45.0213 20.2818C48.0289 20.2818 50.4535 21.3779 52.0385 23.3592L49.1007 26.016C48.0744 24.7802 46.8158 24.1046 45.2535 24.1046C42.5724 24.1046 40.7081 25.9689 40.7081 28.767C40.7081 31.5651 42.574 33.4294 45.2535 33.4294C46.8158 33.4294 48.0744 32.7538 49.1007 31.518L52.0385 34.1748C50.4535 36.1561 48.0289 37.2522 45.0213 37.2522C39.8457 37.2522 36.0456 33.7315 36.0456 28.7654V28.767Z" fill="#435056"/>
<path d="M60.3873 31.0048L58.6627 32.8464V36.9258H54.0928V20.6066H58.6627V27.3915L64.9799 20.6066H70.0629L63.3949 27.8332L70.4121 36.9242H65.0497L60.3873 31.0032V31.0048Z" fill="#435056"/>
<path d="M42.7429 44.4253H37.7313V40.7649H52.3487V44.4253H47.3598V57.0842H42.7429V44.4253Z" fill="#435056"/>
<path d="M69.6017 40.7649V57.0842H64.9864V50.7198H58.6919V57.0842H54.0766V40.7649H58.6919V46.897H64.9864V40.7649H69.6017Z" fill="#435056"/>
<path d="M72.0279 48.9253C72.0279 44.0291 75.8751 40.4401 81.0962 40.4401C86.3172 40.4401 90.1644 44.0291 90.1644 48.9253C90.1644 53.8216 86.3172 57.4122 81.0962 57.4122C75.8751 57.4122 72.0279 53.8216 72.0279 48.9253ZM85.502 48.9253C85.502 46.1045 83.5679 44.2629 81.0962 44.2629C78.6245 44.2629 76.6903 46.1045 76.6903 48.9253C76.6903 51.7462 78.6245 53.5878 81.0962 53.5878C83.5679 53.5878 85.502 51.7462 85.502 48.9253Z" fill="#435056"/>
<path d="M108.119 40.7649V57.0842H104.319L97.115 48.3878V57.0842H92.5923V40.7649H96.3923L103.596 49.4613V40.7649H108.119Z" fill="#435056"/>
<path d="M76.2681 27.9144L75.4318 26.7143C75.3782 26.7208 75.3262 26.7208 75.2742 26.7208H74.3502V27.9144H73.5886V23.8171H75.2742C76.3509 23.8171 77.0184 24.3677 77.0184 25.2738C77.0184 25.8942 76.7017 26.3505 76.1463 26.5665L77.0882 27.9128H76.2681V27.9144ZM75.2369 24.4602H74.347V26.0923H75.2369C75.9043 26.0923 76.2503 25.7886 76.2503 25.2738C76.2503 24.759 75.9043 24.4602 75.2369 24.4602Z" fill="#27A999"/>
<path d="M80.9387 27.2762V27.9144H77.8661V23.8171H80.8575V24.4554H78.6277V25.5207H80.6057V26.1475H78.6277V27.2778H80.9403L80.9387 27.2762Z" fill="#27A999"/>
<path d="M81.788 23.8171H82.5496V27.9144H81.788V23.8171Z" fill="#27A999"/>
<path d="M87.4183 27.9144L87.4118 25.1991L86.0655 27.4467H85.7261L84.3799 25.2349V27.916H83.6539V23.8188H84.2808L85.908 26.534L87.506 23.8188H88.1328L88.1393 27.916H87.4199L87.4183 27.9144Z" fill="#27A999"/>
<path d="M91.9037 26.966H89.8542L89.4499 27.9144H88.6655L90.5087 23.8171H91.2574L93.1071 27.9144H92.3113L91.9021 26.966H91.9037ZM91.652 26.3684L90.879 24.5772L90.1125 26.3684H91.652Z" fill="#27A999"/>
<path d="M96.3696 25.8195H97.089V27.4532C96.6619 27.7991 96.0643 27.9745 95.4846 27.9745C94.2146 27.9745 93.2776 27.0911 93.2776 25.8682C93.2776 24.6454 94.2146 23.7619 95.4959 23.7619C96.1812 23.7619 96.7545 23.9909 97.141 24.4294L96.6603 24.8971C96.3388 24.5755 95.9701 24.4294 95.53 24.4294C94.658 24.4294 94.0441 25.0205 94.0441 25.8698C94.0441 26.7192 94.658 27.3103 95.5252 27.3103C95.8175 27.3103 96.1049 27.2518 96.368 27.0992V25.8227L96.3696 25.8195Z" fill="#27A999"/>
<path d="M98.091 23.8171H98.8527V27.9144H98.091V23.8171Z" fill="#27A999"/>
<path d="M103.6 23.8171V27.9144H102.973L100.714 25.1407V27.9144H99.9586V23.8171H100.585L102.844 26.5909V23.8171H103.6Z" fill="#27A999"/>
<path d="M107.773 27.2762V27.9144H104.701V23.8171H107.692V24.4554H105.462V25.5207H107.44V26.1475H105.462V27.2778H107.775L107.773 27.2762Z" fill="#27A999"/>
<path d="M74.4184 30.274H73.0608V29.631H76.5377V30.274H75.1801V33.7266H74.4184V30.274Z" fill="#27A999"/>
<path d="M80.7519 29.6293V33.7266H79.9903V31.9711H77.871V33.7266H77.1093V29.6293H77.871V31.3215H79.9903V29.6293H80.7519Z" fill="#27A999"/>
<path d="M84.9255 33.0884V33.7266H81.853V29.6293H84.8443V30.2676H82.6146V31.3329H84.5926V31.9597H82.6146V33.09H84.9271L84.9255 33.0884Z" fill="#27A999"/>
<path d="M90.1872 31.6317H90.9066V33.2654C90.4795 33.6113 89.8819 33.7867 89.3021 33.7867C88.0322 33.7867 87.0951 32.9033 87.0951 31.6804C87.0951 30.4576 88.0321 29.5741 89.3135 29.5741C89.9988 29.5741 90.572 29.8031 90.9585 30.2416L90.4779 30.7093C90.1563 30.3877 89.7877 30.2416 89.3476 30.2416C88.4755 30.2416 87.8616 30.8327 87.8616 31.682C87.8616 32.5314 88.4755 33.1225 89.3427 33.1225C89.635 33.1225 89.9225 33.064 90.1855 32.9114V31.6349L90.1872 31.6317Z" fill="#27A999"/>
<path d="M94.5898 33.7266L93.7534 32.5265C93.7014 32.533 93.6479 32.533 93.5959 32.533H92.6718V33.7266H91.9102V29.6293H93.5959C94.6726 29.6293 95.34 30.1799 95.34 31.086C95.34 31.7064 95.0234 32.1627 94.468 32.3787L95.4099 33.725H94.5898V33.7266ZM93.5602 30.274H92.6702V31.9061H93.5602C94.2276 31.9061 94.5735 31.6025 94.5735 31.0877C94.5735 30.5729 94.2276 30.274 93.5602 30.274Z" fill="#27A999"/>
<path d="M96.1877 29.6293H96.9494V33.7266H96.1877V29.6293Z" fill="#27A999"/>
<path d="M98.0553 29.6293H99.8465C101.175 29.6293 102.083 30.4494 102.083 31.6772C102.083 32.9049 101.175 33.725 99.8465 33.725H98.0553V29.6277V29.6293ZM99.8108 33.0835C100.723 33.0835 101.315 32.5281 101.315 31.6788C101.315 30.8294 100.723 30.274 99.8108 30.274H98.8153V33.0835H99.8108Z" fill="#27A999"/>
<path d="M4.99533 17.6038V18.752H0.211117V12.5712H4.88165V13.7193H1.63209V15.0607H4.50165V16.1731H1.63209V17.6038H4.99533Z" fill="#EF7E16"/>
<path d="M6.03792 12.1993H7.41504V18.7504H6.03792V12.1993Z" fill="#EF7E16"/>
<path d="M8.52747 12.5712C8.52747 12.1392 8.87175 11.803 9.3833 11.803C9.89485 11.803 10.2391 12.1213 10.2391 12.5452C10.2391 13.0048 9.89485 13.3393 9.3833 13.3393C8.87175 13.3393 8.52747 13.0031 8.52747 12.5712ZM8.69474 14.0002H10.0719V18.7504H8.69474V14.0002Z" fill="#EF7E16"/>
<path d="M15.556 16.0399V18.7504H14.2666V18.1592C14.01 18.5912 13.5163 18.8218 12.818 18.8218C11.7056 18.8218 11.043 18.2031 11.043 17.383C11.043 16.5629 11.6341 15.962 13.0827 15.962H14.1773C14.1773 15.3709 13.8249 15.0266 13.0827 15.0266C12.5793 15.0266 12.058 15.1939 11.7137 15.4683L11.22 14.5053C11.7413 14.135 12.5094 13.932 13.2678 13.932C14.7164 13.932 15.5544 14.6027 15.5544 16.0416L15.556 16.0399ZM14.1789 17.2498V16.7642H13.2337C12.589 16.7642 12.386 17.003 12.386 17.3196C12.386 17.6639 12.6767 17.8929 13.1623 17.8929C13.6219 17.8929 14.0181 17.6818 14.1773 17.2482L14.1789 17.2498Z" fill="#EF7E16"/>
<path d="M27.8365 71.1266L26.4837 70.5826V74.9706L34.4119 78.4702V73.7607L31.2403 72.4794L27.8365 71.1266Z" fill="#047789"/>
<path d="M26.0192 70.3958L22.6154 69.0285L26.0192 67.6611V63.2098L18.0927 66.7208V71.2663L26.0192 74.7659V70.3958Z" fill="#047789"/>
<path d="M26.4837 63.0035V67.4743L27.8365 66.9303L31.2403 65.5792L34.4119 64.2962V59.4941L26.4837 63.0035Z" fill="#047789"/>
<path d="M21.2626 45.653L24.6665 47.0058L26.0192 47.5498V43.1619L18.0927 39.6622V44.3717L21.2626 45.653Z" fill="#FECA09"/>
<path d="M26.4837 43.3665V47.7366L29.8892 49.104L26.4837 50.4714V54.9227L34.4119 51.4116V46.8661L26.4837 43.3665Z" fill="#FECA09"/>
<path d="M26.0192 50.6581L24.6665 51.2021L21.2626 52.5549L18.0927 53.8362V58.6383L26.0192 55.1289V50.6581Z" fill="#FECA09"/>
<path d="M26.0192 30.7336L22.6154 29.3662L26.0192 27.9989V23.5476L18.0927 27.0586V31.6041L26.0192 35.1037V30.7336Z" fill="#9CC2CD"/>
<path d="M27.8365 31.4644L26.4837 30.9204V35.3084L34.4119 38.808V34.0985L31.2403 32.8172L27.8365 31.4644Z" fill="#9CC2CD"/>
<path d="M26.4837 23.3413V27.8121L27.8365 27.2681L31.2403 25.9153L34.4119 24.634V19.8319L26.4837 23.3413Z" fill="#9CC2CD"/>
<path d="M24.6665 7.34359L26.0192 7.88762V3.49965L18.0927 0V4.70951L21.2626 5.99082L24.6665 7.34359Z" fill="#EF7E16"/>
<path d="M26.4837 3.70427V8.07438L29.8892 9.44176L26.4837 10.8091V15.2604L34.4119 11.7494V7.20393L26.4837 3.70427Z" fill="#EF7E16"/>
<path d="M26.0192 10.9959L24.6665 11.5399L21.2626 12.8911L18.0927 14.174V18.9761L26.0192 15.4667V10.9959Z" fill="#EF7E16"/>
</g>
<defs>
<clipPath id="clip0_2402_1782">
<rect width="108.119" height="80" fill="white"/>
</clipPath>
</defs>
</svg>
